<?xml version="1.0" encoding="UTF-8"?>
<svg id="icon215" data-name="icon" xmlns="http://www.w3.org/2000/svg" width="32" height="32" version="1.1" viewBox="0 0 32 32">
  <!-- Generator: Adobe Illustrator 29.8.2, SVG Export Plug-In . SVG Version: 2.1.1 Build 3)  -->
  <title>rh-ui-icon-automation</title>
<metadata><?xpacket begin="﻿" id="W5M0MpCehiHzreSzNTczkc9d"?>
<x:xmpmeta xmlns:x="adobe:ns:meta/" x:xmptk="Adobe XMP Core 8.0-c001 1.000000, 0000/00/00-00:00:00        ">
   <rdf:RDF xmlns:rdf="http://www.w3.org/1999/02/22-rdf-syntax-ns#">
      <rdf:Description rdf:about=""
            xmlns:dc="http://purl.org/dc/elements/1.1/"
            xmlns:xmp="http://ns.adobe.com/xap/1.0/"
            xmlns:tiff="http://ns.adobe.com/tiff/1.0/">
         <dc:format>image/svg+xml</dc:format>
         <dc:modified>2025-10-14T20:49:46.572Z</dc:modified>
         <dc:title>
            <rdf:Alt>
               <rdf:li xml:lang="x-default">rh-ui-icon-automation</rdf:li>
            </rdf:Alt>
         </dc:title>
         <xmp:brand-content-type>Icon</xmp:brand-content-type>
         <xmp:rhcc-file-last-modified>2025-10-14T20:46:06.326Z</xmp:rhcc-file-last-modified>
         <xmp:brand-content-subtype>UI</xmp:brand-content-subtype>
         <xmp:rhcc-rights-restricted>no</xmp:rhcc-rights-restricted>
         <xmp:brand-colorway>
            <rdf:Bag>
               <rdf:li>colorway:black</rdf:li>
            </rdf:Bag>
         </xmp:brand-colorway>
         <tiff:ImageWidth>32</tiff:ImageWidth>
         <tiff:ImageLength>32</tiff:ImageLength>
      </rdf:Description>
   </rdf:RDF>
</x:xmpmeta>
                                                                                                    
                                                                                                    
                                                                                                    
                                                                                                    
                                                                                                    
                                                                                                    
                                                                                                    
                                                                                                    
                                                                                                    
                                                                                                    
                                                                                                    
                                                                                                    
                                                                                                    
                                                                                                    
                                                                                                    
                                                          
<?xpacket end="w"?></metadata>
<defs>
    <style>
      .st0 {
        fill: none;
      }

      .st1 {
        fill: #151515;
      }
    </style>
  </defs>
  <path class="st1" d="M22,17v3.5c0,.827-.673,1.5-1.5,1.5h-3.5c-.553,0-1-.447-1-1s.447-1,1-1h1.596c-1.289-1.286-3.302-3.292-3.302-3.292,0,0-3.186-3.174-4.109-4.098-.905-.906-2.109-1.404-3.39-1.404s-2.485.498-3.391,1.404c-.905.905-1.404,2.109-1.404,3.39s.499,2.484,1.404,3.39c.905.906,2.109,1.404,3.391,1.404s2.484-.498,3.39-1.404l1.109-1.107c.391-.389,1.023-.391,1.414.002.39.391.39,1.024-.002,1.414l-1.107,1.105c-1.283,1.284-2.989,1.99-4.804,1.99s-3.521-.706-4.805-1.99c-1.283-1.283-1.99-2.989-1.99-4.804s.707-3.521,1.99-4.804c1.283-1.284,2.989-1.99,4.805-1.99s3.521.706,4.804,1.99c.924.924,4.107,4.096,4.107,4.096,0,0,2.004,1.997,3.294,3.284v-1.576c0-.553.447-1,1-1s1,.447,1,1ZM29.01,11.196c-1.283-1.284-2.989-1.991-4.805-1.991s-3.521.707-4.804,1.991l-1.106,1.104c-.392.39-.394,1.023-.004,1.414.389.391,1.023.394,1.414.004l1.11-1.108c.905-.906,2.109-1.405,3.39-1.405s2.485.499,3.391,1.405c.905.905,1.404,2.109,1.404,3.39s-.499,2.484-1.404,3.39c-.745.746-1.689,1.216-2.732,1.36-.547.075-.93.58-.854,1.127.069.501.497.863.989.863.045,0,.092-.003.138-.01,1.479-.204,2.818-.87,3.873-1.927,1.283-1.283,1.99-2.989,1.99-4.804s-.707-3.521-1.99-4.804Z"/>
  <rect id="transparent_rectangle" class="st0" width="32" height="32"/>
</svg>