<?xml version="1.0" encoding="UTF-8"?>
<svg id="icon21" data-name="icon" xmlns="http://www.w3.org/2000/svg" width="32" height="32" version="1.1" viewBox="0 0 32 32">
  <!-- Generator: Adobe Illustrator 29.8.2, SVG Export Plug-In . SVG Version: 2.1.1 Build 3)  -->
  <defs>
    <style>
      .st0 {
        fill: none;
      }

      .st1 {
        fill: #151515;
      }
    </style>
  </defs>
  <path class="st1" d="M26,13c-2.757,0-5,2.243-5,5,0,2.392,1.691,4.392,3.938,4.881-.435,3.445-3.378,6.119-6.938,6.119-3.86,0-7-3.14-7-7v-1.069c3.94-.495,7-3.859,7-7.931V3.5c0-.827-.673-1.5-1.5-1.5h-2.5c-.552,0-1,.448-1,1s.448,1,1,1h2v9c0,3.309-2.691,6-6,6s-6-2.691-6-6V4h2c.552,0,1-.448,1-1s-.448-1-1-1h-2.5c-.827,0-1.5.673-1.5,1.5v9.5c0,4.072,3.06,7.436,7,7.931v1.069c0,4.962,4.038,9,9,9,4.657,0,8.499-3.557,8.954-8.096,2.301-.447,4.046-2.473,4.046-4.904,0-2.757-2.243-5-5-5ZM26,21c-1.654,0-3-1.346-3-3s1.346-3,3-3,3,1.346,3,3-1.346,3-3,3Z"/>
  <rect id="transparent_rectangle" class="st0" width="32" height="32"/>
</svg>