<?xml version="1.0" encoding="UTF-8"?>
<svg id="icon27" data-name="icon" xmlns="http://www.w3.org/2000/svg" width="32" height="32" version="1.1" viewBox="0 0 32 32">
  <!-- Generator: Adobe Illustrator 29.8.2, SVG Export Plug-In . SVG Version: 2.1.1 Build 3)  -->
  <defs>
    <style>
      .st0 {
        fill: none;
      }

      .st1 {
        fill: #151515;
      }
    </style>
  </defs>
  <path class="st1" d="M31,15.5c0,3.033-2.468,5.5-5.5,5.5h-4.5c-.553,0-1-.448-1-1s.447-1,1-1h4.5c1.93,0,3.5-1.57,3.5-3.5,0-1.802-1.362-3.29-3.17-3.461-.27-.026-.518-.16-.687-.371-.169-.212-.245-.483-.211-.752.039-.3.067-.604.067-.916,0-3.86-3.141-7-7-7-3.318,0-6.204,2.357-6.86,5.605-.059.289-.241.537-.5.679s-.567.161-.841.056c-.584-.226-1.189-.34-1.799-.34-2.757,0-5,2.243-5,5s2.243,5,5,5h3c.553,0,1,.448,1,1s-.447,1-1,1h-3c-3.859,0-7-3.14-7-7s3.141-7,7-7c.491,0,.979.052,1.46.156,1.207-3.624,4.641-6.156,8.54-6.156,4.963,0,9,4.038,9,9,0,.075,0,.151-.004.228,2.34.651,4.004,2.77,4.004,5.272ZM19.293,25.293l-2.293,2.293v-12.586c0-.552-.447-1-1-1s-1,.448-1,1v12.586l-2.293-2.293c-.391-.391-1.023-.391-1.414,0s-.391,1.023,0,1.414l3.646,3.646c.292.292.677.438,1.061.438s.769-.146,1.061-.438l3.646-3.646c.391-.391.391-1.023,0-1.414s-1.023-.391-1.414,0Z"/>
  <rect id="transparent_rectangle" class="st0" width="32" height="32"/>
</svg>