<?xml version="1.0" encoding="UTF-8"?>
<svg id="icon303" data-name="icon" xmlns="http://www.w3.org/2000/svg" width="32" height="32" version="1.1" viewBox="0 0 32 32">
  <!-- Generator: Adobe Illustrator 29.8.2, SVG Export Plug-In . SVG Version: 2.1.1 Build 3)  -->
  <title>rh-ui-icon-cluster</title>
<metadata><?xpacket begin="﻿" id="W5M0MpCehiHzreSzNTczkc9d"?>
<x:xmpmeta xmlns:x="adobe:ns:meta/" x:xmptk="Adobe XMP Core 8.0-c001 1.000000, 0000/00/00-00:00:00        ">
   <rdf:RDF xmlns:rdf="http://www.w3.org/1999/02/22-rdf-syntax-ns#">
      <rdf:Description rdf:about=""
            xmlns:xmp="http://ns.adobe.com/xap/1.0/"
            xmlns:dc="http://purl.org/dc/elements/1.1/"
            xmlns:tiff="http://ns.adobe.com/tiff/1.0/">
         <xmp:brand-content-subtype>UI</xmp:brand-content-subtype>
         <xmp:rhcc-rights-restricted>no</xmp:rhcc-rights-restricted>
         <xmp:rhcc-file-last-modified>2025-10-14T20:46:09.951Z</xmp:rhcc-file-last-modified>
         <xmp:brand-content-type>Icon</xmp:brand-content-type>
         <xmp:brand-colorway>
            <rdf:Bag>
               <rdf:li>colorway:black</rdf:li>
            </rdf:Bag>
         </xmp:brand-colorway>
         <dc:modified>2025-10-14T20:50:53.710Z</dc:modified>
         <dc:format>image/svg+xml</dc:format>
         <dc:title>
            <rdf:Alt>
               <rdf:li xml:lang="x-default">rh-ui-icon-cluster</rdf:li>
            </rdf:Alt>
         </dc:title>
         <tiff:ImageLength>32</tiff:ImageLength>
         <tiff:ImageWidth>32</tiff:ImageWidth>
      </rdf:Description>
   </rdf:RDF>
</x:xmpmeta>
                                                                                                    
                                                                                                    
                                                                                                    
                                                                                                    
                                                                                                    
                                                                                                    
                                                                                                    
                                                                                                    
                                                                                                    
                                                                                                    
                                                                                                    
                                                                                                    
                                                                                                    
                                                                                                    
                                                                                                    
                                                                                                    
                                                                                                    
                                                                                                    
                                                                                                    
                                                                                                    
                           
<?xpacket end="w"?></metadata>
<defs>
    <style>
      .st0 {
        fill: none;
      }

      .st1 {
        fill: #151515;
      }
    </style>
  </defs>
  <path class="st1" d="M23.076,16.75c.353,1.848,1.975,3.25,3.924,3.25,2.206,0,4-1.794,4-4s-1.794-4-4-4c-1.949,0-3.572,1.402-3.924,3.25h-2.152c-.124-.817-.44-1.565-.911-2.203l4.74-4.74c.641.437,1.414.693,2.246.693,2.206,0,4-1.794,4-4s-1.794-4-4-4-4,1.794-4,4c0,.832.257,1.605.693,2.246l-4.74,4.74c-.573-.423-1.23-.738-1.953-.886v-2.243c1.721-.447,3-2,3-3.858,0-2.206-1.794-4-4-4s-4,1.794-4,4c0,1.858,1.279,3.411,3,3.858v2.243c-.723.147-1.38.462-1.953.886l-4.74-4.74c.437-.641.693-1.414.693-2.246,0-2.206-1.794-4-4-4S1,2.794,1,5s1.794,4,4,4c.832,0,1.605-.257,2.246-.693l4.74,4.74c-.47.637-.786,1.386-.911,2.203h-2.152c-.353-1.848-1.975-3.25-3.924-3.25-2.206,0-4,1.794-4,4s1.794,4,4,4c1.949,0,3.572-1.402,3.924-3.25h2.152c.124.817.44,1.565.911,2.203l-4.74,4.74c-.641-.437-1.414-.693-2.246-.693-2.206,0-4,1.794-4,4s1.794,4,4,4,4-1.794,4-4c0-.832-.257-1.605-.693-2.246l4.74-4.74c.573.423,1.23.738,1.953.886v2.243c-1.721.447-3,2-3,3.858,0,2.206,1.794,4,4,4s4-1.794,4-4c0-1.858-1.279-3.411-3-3.858v-2.243c.723-.147,1.38-.462,1.953-.886l4.74,4.74c-.437.641-.693,1.414-.693,2.246,0,2.206,1.794,4,4,4s4-1.794,4-4-1.794-4-4-4c-.832,0-1.605.257-2.246.693l-4.74-4.74c.47-.637.786-1.386.911-2.203h2.152ZM27,14c1.103,0,2,.897,2,2s-.897,2-2,2-2-.897-2-2,.897-2,2-2ZM5,18c-1.103,0-2-.897-2-2s.897-2,2-2,2,.897,2,2-.897,2-2,2ZM27,3c1.103,0,2,.897,2,2s-.897,2-2,2-2-.897-2-2,.897-2,2-2ZM14,5c0-1.103.897-2,2-2s2,.897,2,2-.897,2-2,2-2-.897-2-2ZM5,7c-1.103,0-2-.897-2-2s.897-2,2-2,2,.897,2,2-.897,2-2,2ZM5,29c-1.103,0-2-.897-2-2s.897-2,2-2,2,.897,2,2-.897,2-2,2ZM18,27c0,1.103-.897,2-2,2s-2-.897-2-2,.897-2,2-2,2,.897,2,2ZM16,19c-1.654,0-3-1.346-3-3s1.346-3,3-3,3,1.346,3,3-1.346,3-3,3ZM27,25c1.103,0,2,.897,2,2s-.897,2-2,2-2-.897-2-2,.897-2,2-2Z"/>
  <rect id="transparent_rectangle3" data-name="transparent_rectangle" class="st0" width="32" height="32"/>
</svg>