<?xml version="1.0" encoding="UTF-8"?>
<svg id="icon305" data-name="icon" xmlns="http://www.w3.org/2000/svg" width="32" height="32" version="1.1" viewBox="0 0 32 32">
  <!-- Generator: Adobe Illustrator 29.8.2, SVG Export Plug-In . SVG Version: 2.1.1 Build 3)  -->
  <title>rh-ui-icon-connected</title>
<metadata><?xpacket begin="﻿" id="W5M0MpCehiHzreSzNTczkc9d"?>
<x:xmpmeta xmlns:x="adobe:ns:meta/" x:xmptk="Adobe XMP Core 8.0-c001 1.000000, 0000/00/00-00:00:00        ">
   <rdf:RDF xmlns:rdf="http://www.w3.org/1999/02/22-rdf-syntax-ns#">
      <rdf:Description rdf:about=""
            xmlns:dc="http://purl.org/dc/elements/1.1/"
            xmlns:xmp="http://ns.adobe.com/xap/1.0/"
            xmlns:tiff="http://ns.adobe.com/tiff/1.0/">
         <dc:format>image/svg+xml</dc:format>
         <dc:modified>2025-10-15T15:06:20.327Z</dc:modified>
         <dc:title>
            <rdf:Alt>
               <rdf:li xml:lang="x-default">rh-ui-icon-connected</rdf:li>
            </rdf:Alt>
         </dc:title>
         <xmp:brand-content-type>Icon</xmp:brand-content-type>
         <xmp:rhcc-file-last-modified>2025-10-15T14:47:26.430Z</xmp:rhcc-file-last-modified>
         <xmp:brand-content-subtype>UI</xmp:brand-content-subtype>
         <xmp:rhcc-rights-restricted>no</xmp:rhcc-rights-restricted>
         <xmp:brand-colorway>
            <rdf:Bag>
               <rdf:li>colorway:black</rdf:li>
            </rdf:Bag>
         </xmp:brand-colorway>
         <tiff:ImageWidth>32</tiff:ImageWidth>
         <tiff:ImageLength>32</tiff:ImageLength>
      </rdf:Description>
   </rdf:RDF>
</x:xmpmeta>
                                                                                                    
                                                                                                    
                                                                                                    
                                                                                                    
                                                                                                    
                                                                                                    
                                                                                                    
                                                                                                    
                                                                                                    
                                                                                                    
                                                                                                    
                                                                                                    
                                                                                                    
                                                                                                    
                                                                                                    
                                                                                                    
                                                                                                    
                                                                                                    
                                                                                                    
                                                                                                    
                           
<?xpacket end="w"?></metadata>
<defs>
    <style>
      .st0 {
        fill: none;
      }

      .st1 {
        fill: #151515;
      }
    </style>
  </defs>
  <path class="st1" d="M19,16c0,1.654-1.346,3-3,3s-3-1.346-3-3,1.346-3,3-3,3,1.346,3,3ZM3,16c0-3.472,1.353-6.737,3.808-9.192.391-.391.391-1.023,0-1.414s-1.023-.391-1.414,0c-2.833,2.833-4.394,6.6-4.394,10.606s1.561,7.773,4.394,10.606c.195.195.451.293.707.293s.512-.098.707-.293c.391-.391.391-1.023,0-1.414-2.455-2.456-3.808-5.72-3.808-9.192ZM26.606,5.394c-.391-.391-1.023-.391-1.414,0s-.391,1.023,0,1.414c2.455,2.456,3.808,5.72,3.808,9.192s-1.353,6.737-3.808,9.192c-.391.391-.391,1.023,0,1.414.195.195.451.293.707.293s.512-.098.707-.293c2.833-2.833,4.394-6.6,4.394-10.606s-1.561-7.773-4.394-10.606ZM11.05,9.636c-.391-.391-1.023-.391-1.414,0-3.509,3.509-3.509,9.219,0,12.728.195.195.451.293.707.293s.512-.098.707-.293c.391-.391.391-1.023,0-1.414-2.729-2.729-2.729-7.17,0-9.899.391-.391.391-1.023,0-1.414ZM22.364,9.636c-.391-.391-1.023-.391-1.414,0s-.391,1.023,0,1.414c2.729,2.729,2.729,7.17,0,9.899-.391.391-.391,1.023,0,1.414.195.195.451.293.707.293s.512-.098.707-.293c3.509-3.509,3.509-9.219,0-12.728Z"/>
  <rect id="transparent_rectangle3" data-name="transparent_rectangle" class="st0" width="32" height="32"/>
</svg>