<?xml version="1.0" encoding="UTF-8"?>
<svg id="icon102" data-name="icon" xmlns="http://www.w3.org/2000/svg" width="32" height="32" version="1.1" viewBox="0 0 32 32">
  <!-- Generator: Adobe Illustrator 29.8.2, SVG Export Plug-In . SVG Version: 2.1.1 Build 3)  -->
  <defs>
    <style>
      .st0 {
        fill: none;
      }

      .st1 {
        fill: #151515;
      }
    </style>
  </defs>
  <path class="st1" d="M3.071,8.5c0-3.523,5.92-6.5,12.929-6.5s12.929,2.977,12.929,6.5-5.92,6.5-12.929,6.5S3.071,12.023,3.071,8.5ZM3.071,12.812v3.188c0,3.523,5.92,6.5,12.929,6.5s12.929-2.977,12.929-6.5v-3.188c-2.561,2.524-7.34,4.188-12.929,4.188s-10.368-1.664-12.929-4.188ZM3.071,20.312v3.188c0,3.523,5.92,6.5,12.929,6.5s12.929-2.977,12.929-6.5v-3.188c-2.561,2.523-7.34,4.188-12.929,4.188s-10.368-1.664-12.929-4.188Z"/>
  <rect class="st0" width="32" height="32"/>
</svg>