<?xml version="1.0" encoding="UTF-8"?>
<svg id="icon95" data-name="icon" xmlns="http://www.w3.org/2000/svg" width="32" height="32" version="1.1" viewBox="0 0 32 32">
  <!-- Generator: Adobe Illustrator 29.8.2, SVG Export Plug-In . SVG Version: 2.1.1 Build 3)  -->
  <defs>
    <style>
      .st0 {
        fill: none;
      }

      .st1 {
        fill: #151515;
      }
    </style>
  </defs>
  <path class="st1" d="M28,21c-1.103,0-2-.897-2-2v-4c0-4.885-3.523-8.955-8.159-9.823.405-.445.659-1.03.659-1.677,0-1.378-1.121-2.5-2.5-2.5s-2.5,1.122-2.5,2.5c0,.647.254,1.233.659,1.677-4.636.868-8.159,4.938-8.159,9.823v4c0,1.103-.897,2-2,2-.553,0-1,.448-1,1v3.5c0,.827.673,1.5,1.5,1.5h7.5c0,2.206,1.794,4,4,4s4-1.794,4-4h7.5c.827,0,1.5-.673,1.5-1.5v-3.5c0-.552-.447-1-1-1ZM27,25H5v-2.126c1.724-.445,3-2.013,3-3.874v-4c0-4.411,3.589-8,8-8s8,3.589,8,8v4c0,1.86,1.276,3.428,3,3.874v2.126Z"/>
  <rect id="transparent_rectangle" class="st0" width="32" height="32"/>
</svg>