<?xml version="1.0" encoding="UTF-8"?>
<svg id="icon285" data-name="icon" xmlns="http://www.w3.org/2000/svg" width="32" height="32" version="1.1" viewBox="0 0 32 32">
  <!-- Generator: Adobe Illustrator 29.8.2, SVG Export Plug-In . SVG Version: 2.1.1 Build 3)  -->
  <title>rh-ui-icon-package</title>
<metadata><?xpacket begin="﻿" id="W5M0MpCehiHzreSzNTczkc9d"?>
<x:xmpmeta xmlns:x="adobe:ns:meta/" x:xmptk="Adobe XMP Core 8.0-c001 1.000000, 0000/00/00-00:00:00        ">
   <rdf:RDF xmlns:rdf="http://www.w3.org/1999/02/22-rdf-syntax-ns#">
      <rdf:Description rdf:about=""
            xmlns:xmp="http://ns.adobe.com/xap/1.0/"
            xmlns:dc="http://purl.org/dc/elements/1.1/"
            xmlns:tiff="http://ns.adobe.com/tiff/1.0/">
         <xmp:brand-content-subtype>UI</xmp:brand-content-subtype>
         <xmp:rhcc-rights-restricted>no</xmp:rhcc-rights-restricted>
         <xmp:rhcc-file-last-modified>2025-10-14T20:46:28.157Z</xmp:rhcc-file-last-modified>
         <xmp:brand-content-type>Icon</xmp:brand-content-type>
         <xmp:brand-colorway>
            <rdf:Bag>
               <rdf:li>colorway:black</rdf:li>
            </rdf:Bag>
         </xmp:brand-colorway>
         <dc:modified>2025-10-14T20:50:53.189Z</dc:modified>
         <dc:format>image/svg+xml</dc:format>
         <dc:title>
            <rdf:Alt>
               <rdf:li xml:lang="x-default">rh-ui-icon-package</rdf:li>
            </rdf:Alt>
         </dc:title>
         <tiff:ImageLength>32</tiff:ImageLength>
         <tiff:ImageWidth>32</tiff:ImageWidth>
      </rdf:Description>
   </rdf:RDF>
</x:xmpmeta>
                                                                                                    
                                                                                                    
                                                                                                    
                                                                                                    
                                                                                                    
                                                                                                    
                                                                                                    
                                                                                                    
                                                                                                    
                                                                                                    
                                                                                                    
                                                                                                    
                                                                                                    
                                                                                                    
                                                                                                    
                                                                                                    
                                                                                                    
                     
<?xpacket end="w"?></metadata>
<defs>
    <style>
      .st0 {
        fill: none;
      }

      .st1 {
        fill: #151515;
      }
    </style>
  </defs>
  <path class="st1" d="M31,25c0,.553-.448,1-1,1H8.5c-.827,0-1.5-.673-1.5-1.5V5.17c0-1.141-.848-2.112-1.891-2.167-.553-.036-1.083.164-1.485.547-.402.381-.624.896-.624,1.45s-.448,1-1,1-1-.447-1-1c0-1.092.454-2.149,1.246-2.901.804-.762,1.861-1.146,2.967-1.094,2.124.111,3.787,1.94,3.787,4.165v18.83h21c.552,0,1,.447,1,1ZM12,19.5V4.5c0-.827.673-1.5,1.5-1.5h15c.827,0,1.5.673,1.5,1.5v15c0,.827-.673,1.5-1.5,1.5h-15c-.827,0-1.5-.673-1.5-1.5ZM14,19h14V5h-5v5c0,.553-.448,1-1,1h-2c-.552,0-1-.447-1-1v-5h-5v14ZM11.005,27.378c-.897,0-1.625.728-1.625,1.625s.728,1.625,1.625,1.625,1.625-.728,1.625-1.625-.728-1.625-1.625-1.625ZM26.995,27.378c-.897,0-1.625.728-1.625,1.625s.728,1.625,1.625,1.625,1.625-.728,1.625-1.625-.728-1.625-1.625-1.625Z"/>
  <rect id="transparent_rectangle" class="st0" width="32" height="32"/>
</svg>