<?xml version="1.0" encoding="UTF-8"?>
<svg id="icon278" data-name="icon" xmlns="http://www.w3.org/2000/svg" width="32" height="32" version="1.1" viewBox="0 0 32 32">
  <!-- Generator: Adobe Illustrator 29.8.2, SVG Export Plug-In . SVG Version: 2.1.1 Build 3)  -->
  <defs>
    <style>
      .st0 {
        fill: none;
      }

      .st1 {
        fill: #151515;
      }
    </style>
  </defs>
  <path class="st1" d="M30.796,29.205l-8.557-8.557c1.723-2.078,2.761-4.744,2.761-7.648,0-6.617-5.383-12-12-12S1,6.383,1,13s5.383,12,12,12c2.904,0,5.57-1.038,7.648-2.761l8.556,8.556c.22.22.508.33.796.33s.576-.11.796-.33c.438-.439.438-1.151,0-1.591ZM3,13C3,7.486,7.486,3,13,3s10,4.486,10,10-4.486,10-10,10S3,18.514,3,13Z"/>
  <rect id="transparent_rectangle" class="st0" width="32" height="32"/>
</svg>