<?xml version="1.0" encoding="UTF-8"?>
<svg id="icon118" data-name="icon" xmlns="http://www.w3.org/2000/svg" width="32" height="32" version="1.1" viewBox="0 0 32 32">
  <!-- Generator: Adobe Illustrator 29.8.2, SVG Export Plug-In . SVG Version: 2.1.1 Build 3)  -->
  <defs>
    <style>
      .st0 {
        fill: none;
      }

      .st1 {
        fill: #151515;
      }
    </style>
  </defs>
  <path class="st1" d="M16,31c-7.168,0-13-5.832-13-13V4.56c0-.472.33-.879.792-.978L15.792,1.022c.138-.029.279-.029.417,0l12,2.56c.461.099.792.506.792.978v13.44c0,7.168-5.832,13-13,13ZM5,5.369v12.631c0,6.065,4.935,11,11,11s11-4.935,11-11V5.369l-11-2.347-11,2.347Z"/>
  <rect id="transparent_rectangle" class="st0" width="32" height="32"/>
</svg>