<?xml version="1.0" encoding="UTF-8"?>
<svg id="icon119" data-name="icon" xmlns="http://www.w3.org/2000/svg" width="32" height="32" version="1.1" viewBox="0 0 32 32">
  <!-- Generator: Adobe Illustrator 29.8.2, SVG Export Plug-In . SVG Version: 2.1.1 Build 3)  -->
  <defs>
    <style>
      .st0 {
        fill: none;
      }

      .st1 {
        fill: #151515;
      }
    </style>
  </defs>
  <path class="st1" d="M16,11c-2.757,0-5,2.243-5,5s2.243,5,5,5,5-2.243,5-5-2.243-5-5-5ZM16,19c-1.654,0-3-1.346-3-3s1.346-3,3-3,3,1.346,3,3-1.346,3-3,3ZM30.657,12.789c-.1-.46-.507-.789-.978-.789h-2.373c-.141-.4-.302-.791-.481-1.168l1.677-1.676c.333-.333.389-.853.134-1.249-.584-.906-1.267-1.751-2.029-2.513-.766-.766-1.612-1.449-2.514-2.029-.395-.253-.914-.2-1.248.134l-1.677,1.676c-.378-.18-.768-.341-1.168-.481v-2.374c0-.471-.328-.878-.788-.978-2.1-.454-4.324-.454-6.424,0-.46.1-.788.507-.788.978v2.374c-.4.141-.79.302-1.168.481l-1.677-1.676c-.333-.334-.854-.387-1.248-.134-.901.58-1.748,1.263-2.514,2.028-.763.762-1.445,1.607-2.029,2.513-.255.396-.199.917.134,1.249l1.677,1.676c-.18.378-.341.769-.481,1.168h-2.373c-.471,0-.878.328-.978.789-.228,1.051-.343,2.131-.343,3.211s.115,2.16.343,3.211c.1.46.507.789.978.789h2.373c.141.4.302.791.481,1.168l-1.677,1.676c-.333.333-.389.853-.134,1.249.583.904,1.266,1.75,2.029,2.513.766.766,1.612,1.449,2.514,2.029.394.254.915.2,1.248-.134l1.677-1.676c.378.18.768.341,1.168.481v2.374c0,.471.328.878.788.978,1.05.227,2.131.342,3.212.342s2.162-.115,3.212-.342c.46-.1.788-.507.788-.978v-2.374c.4-.141.79-.302,1.168-.481l1.677,1.676c.334.333.854.388,1.248.134.901-.58,1.748-1.263,2.514-2.029.764-.763,1.446-1.608,2.029-2.513.255-.396.199-.917-.134-1.249l-1.677-1.676c.18-.378.341-.769.481-1.168h2.373c.471,0,.878-.328.978-.789.228-1.051.343-2.132.343-3.211s-.115-2.161-.343-3.211ZM28.848,18h-2.272c-.447,0-.84.297-.962.727-.215.758-.513,1.479-.885,2.144-.218.391-.15.879.166,1.195l1.604,1.604c-.396.539-.833,1.048-1.307,1.522s-.984.912-1.521,1.307l-1.604-1.604c-.316-.317-.805-.384-1.195-.166-.665.372-1.386.669-2.144.884-.431.122-.728.515-.728.962v2.273c-1.318.202-2.682.202-4,0v-2.273c0-.447-.297-.84-.728-.962-.758-.215-1.479-.512-2.144-.884-.391-.218-.878-.15-1.195.166l-1.604,1.604c-.537-.395-1.047-.832-1.521-1.307s-.911-.983-1.307-1.522l1.604-1.604c.316-.316.384-.805.166-1.195-.372-.665-.67-1.386-.885-2.144-.122-.43-.515-.727-.962-.727h-2.272c-.102-.661-.152-1.331-.152-2s.051-1.339.152-2h2.272c.447,0,.84-.297.962-.727.215-.758.513-1.479.885-2.144.218-.391.15-.879-.166-1.195l-1.604-1.604c.396-.54.834-1.049,1.307-1.522s.984-.912,1.521-1.307l1.604,1.604c.316.316.805.383,1.195.166.665-.372,1.386-.669,2.144-.884.431-.122.728-.515.728-.962v-2.273c1.318-.202,2.682-.202,4,0v2.273c0,.447.297.84.728.962.758.215,1.479.512,2.144.884.392.218.879.15,1.195-.166l1.604-1.604c.537.395,1.047.832,1.521,1.307.473.472.911.982,1.307,1.521l-1.604,1.604c-.316.316-.384.805-.166,1.195.372.665.67,1.386.885,2.144.122.43.515.727.962.727h2.272c.102.661.152,1.33.152,2s-.051,1.339-.152,2Z"/>
  <rect id="transparent_rectangle" class="st0" width="32" height="32"/>
</svg>