<?xml version="1.0" encoding="UTF-8"?>
<svg id="icon282" data-name="icon" xmlns="http://www.w3.org/2000/svg" width="32" height="32" version="1.1" viewBox="0 0 32 32">
  <!-- Generator: Adobe Illustrator 29.8.2, SVG Export Plug-In . SVG Version: 2.1.1 Build 3)  -->
  <title>rh-ui-icon-speedometer</title>
<metadata><?xpacket begin="﻿" id="W5M0MpCehiHzreSzNTczkc9d"?>
<x:xmpmeta xmlns:x="adobe:ns:meta/" x:xmptk="Adobe XMP Core 8.0-c001 1.000000, 0000/00/00-00:00:00        ">
   <rdf:RDF xmlns:rdf="http://www.w3.org/1999/02/22-rdf-syntax-ns#">
      <rdf:Description rdf:about=""
            xmlns:xmp="http://ns.adobe.com/xap/1.0/"
            xmlns:dc="http://purl.org/dc/elements/1.1/"
            xmlns:tiff="http://ns.adobe.com/tiff/1.0/">
         <xmp:brand-content-subtype>UI</xmp:brand-content-subtype>
         <xmp:rhcc-rights-restricted>no</xmp:rhcc-rights-restricted>
         <xmp:rhcc-file-last-modified>2025-10-14T20:47:49.894Z</xmp:rhcc-file-last-modified>
         <xmp:brand-content-type>Icon</xmp:brand-content-type>
         <xmp:brand-colorway>
            <rdf:Bag>
               <rdf:li>colorway:black</rdf:li>
            </rdf:Bag>
         </xmp:brand-colorway>
         <dc:modified>2025-10-14T20:49:14.907Z</dc:modified>
         <dc:format>image/svg+xml</dc:format>
         <dc:title>
            <rdf:Alt>
               <rdf:li xml:lang="x-default">rh-ui-icon-speedometer</rdf:li>
            </rdf:Alt>
         </dc:title>
         <tiff:ImageLength>32</tiff:ImageLength>
         <tiff:ImageWidth>32</tiff:ImageWidth>
      </rdf:Description>
   </rdf:RDF>
</x:xmpmeta>
                                                                                                    
                                                                                                    
                                                                                                    
                                                                                                    
                                                                                                    
                                                                                                    
                                                                                                    
                                                                                                    
                                                                                                    
                                                                                                    
                                                                                                    
                                                                                                    
                                                                                                    
                                                                                                    
                                                                                                    
                                                         
<?xpacket end="w"?></metadata>
<defs>
    <style>
      .st0 {
        fill: none;
      }

      .st1 {
        fill: #151515;
      }
    </style>
  </defs>
  <path class="st1" d="M16,1C7.729,1,1,7.729,1,16s6.729,15,15,15,15-6.729,15-15S24.271,1,16,1ZM16,29c-7.168,0-13-5.832-13-13S8.832,3,16,3s13,5.832,13,13-5.832,13-13,13ZM22.707,9.293c.391.391.391,1.023,0,1.414l-4.008,4.008c.187.391.301.824.301,1.285,0,1.654-1.346,3-3,3s-3-1.346-3-3,1.346-3,3-3c.462,0,.894.113,1.285.301l4.008-4.008c.391-.391,1.023-.391,1.414,0ZM21,24c0,.553-.448,1-1,1h-8c-.552,0-1-.447-1-1s.448-1,1-1h8c.552,0,1,.447,1,1ZM8.63,16.011c0,.897-.728,1.625-1.625,1.625s-1.625-.728-1.625-1.625.728-1.625,1.625-1.625,1.625.728,1.625,1.625ZM11.625,10.011c0,.897-.728,1.625-1.625,1.625s-1.625-.728-1.625-1.625.728-1.625,1.625-1.625,1.625.728,1.625,1.625ZM17.63,7.003c0,.897-.728,1.625-1.625,1.625s-1.625-.728-1.625-1.625.728-1.625,1.625-1.625,1.625.728,1.625,1.625ZM26.625,16.011c0,.897-.728,1.625-1.625,1.625s-1.625-.728-1.625-1.625.728-1.625,1.625-1.625,1.625.728,1.625,1.625Z"/>
  <rect id="transparent_rectangle" class="st0" width="32" height="32"/>
</svg>