<?xml version="1.0" encoding="UTF-8"?>
<svg id="icon135" data-name="icon" xmlns="http://www.w3.org/2000/svg" width="32" height="32" version="1.1" viewBox="0 0 32 32">
  <!-- Generator: Adobe Illustrator 29.8.2, SVG Export Plug-In . SVG Version: 2.1.1 Build 3)  -->
  <defs>
    <style>
      .st0 {
        fill: none;
      }

      .st1 {
        fill: #151515;
      }
    </style>
  </defs>
  <path class="st1" d="M27,23c-.73,0-1.43.2-2.02.56l-4.09-4.09c.7-.98,1.11-2.18,1.11-3.47s-.41-2.49-1.11-3.47l2.09-2.09c.59.36,1.29.56,2.02.56,2.21,0,4-1.79,4-4s-1.79-4-4-4-4,1.79-4,4c0,.73.2,1.43.56,2.02l-2.09,2.09c-.98-.7-2.18-1.11-3.47-1.11s-2.49.41-3.47,1.11l-4.09-4.09c.36-.59.56-1.29.56-2.02,0-2.21-1.79-4-4-4S1,2.79,1,5s1.79,4,4,4c.73,0,1.43-.2,2.02-.56l4.09,4.09c-.7.98-1.11,2.18-1.11,3.47s.41,2.49,1.11,3.47l-2.09,2.09c-.59-.36-1.29-.56-2.02-.56-2.21,0-4,1.79-4,4s1.79,4,4,4,4-1.79,4-4c0-.73-.2-1.43-.56-2.02l2.09-2.09c.98.7,2.18,1.11,3.47,1.11s2.49-.41,3.47-1.11l4.09,4.09c-.36.59-.56,1.29-.56,2.02,0,2.21,1.79,4,4,4s4-1.79,4-4-1.79-4-4-4ZM23,7c0-1.1.9-2,2-2s2,.9,2,2-.9,2-2,2c-.18,0-.35-.02-.51-.07-.69-.18-1.24-.73-1.42-1.42-.05-.16-.07-.33-.07-.51ZM5,7c-1.1,0-2-.9-2-2s.9-2,2-2,2,.9,2,2c0,.18-.02.35-.07.51-.18.69-.73,1.24-1.42,1.42-.16.05-.33.07-.51.07ZM9,25c0,1.1-.9,2-2,2s-2-.9-2-2,.9-2,2-2c.18,0,.35.02.51.07.69.18,1.24.73,1.42,1.42.05.16.07.33.07.51ZM16,20c-.73,0-1.43-.2-2.02-.56-.59-.33-1.09-.83-1.42-1.42-.36-.59-.56-1.29-.56-2.02s.2-1.43.56-2.02c.33-.59.83-1.09,1.42-1.42.59-.36,1.29-.56,2.02-.56s1.43.2,2.02.56c.59.33,1.09.83,1.42,1.42.36.59.56,1.29.56,2.02s-.2,1.43-.56,2.02c-.33.59-.83,1.09-1.42,1.42-.59.36-1.29.56-2.02.56ZM27,29c-1.1,0-2-.9-2-2,0-.18.02-.35.07-.51.18-.69.73-1.24,1.42-1.42.16-.05.33-.07.51-.07,1.1,0,2,.9,2,2s-.9,2-2,2Z"/>
  <rect id="transparent_rectangle" class="st0" width="32" height="32"/>
</svg>