<?xml version="1.0" encoding="UTF-8"?><svg id="uuid-baac7536-61ee-49de-aca8-51e62eba11a5" xmlns="http://www.w3.org/2000/svg" viewBox="0 0 38 38"><title>Ansible Content Collections icon</title>
<desc>Management</desc>
<metadata><?xpacket begin="﻿" id="W5M0MpCehiHzreSzNTczkc9d"?>
<x:xmpmeta xmlns:x="adobe:ns:meta/" x:xmptk="Adobe XMP Core 8.0-c001 1.000000, 0000/00/00-00:00:00        ">
   <rdf:RDF xmlns:rdf="http://www.w3.org/1999/02/22-rdf-syntax-ns#">
      <rdf:Description rdf:about=""
            xmlns:xmp="http://ns.adobe.com/xap/1.0/"
            xmlns:dc="http://purl.org/dc/elements/1.1/"
            xmlns:cq="http://www.day.com/jcr/cq/1.0"
            xmlns:tiff="http://ns.adobe.com/tiff/1.0/"
            xmlns:xmpRights="http://ns.adobe.com/xap/1.0/rights/">
         <xmp:rhcc-effective-on>2024-03-01T15:25:39.567Z</xmp:rhcc-effective-on>
         <xmp:rhcc-metadata-complete-moderator>pending</xmp:rhcc-metadata-complete-moderator>
         <xmp:rhcc-translation-id>TRA2780f9f7-36c1-46bd-9cb6-0475405ff51a</xmp:rhcc-translation-id>
         <xmp:brand-content-type>Icon</xmp:brand-content-type>
         <xmp:CreateDate>2024-03-01T15:25:39.567Z</xmp:CreateDate>
         <xmp:rhcc-aspect-ratio>square</xmp:rhcc-aspect-ratio>
         <xmp:rhcc-effective-on-set-on-upload>true</xmp:rhcc-effective-on-set-on-upload>
         <xmp:rhcc-published-asset-email-sent>true</xmp:rhcc-published-asset-email-sent>
         <xmp:rhcc-metadata-complete-uploader>pending</xmp:rhcc-metadata-complete-uploader>
         <xmp:rhcc-file-last-modified>2024-07-13T00:01:05.459Z</xmp:rhcc-file-last-modified>
         <xmp:rhcc-audience>rhcc-audience:internal</xmp:rhcc-audience>
         <xmp:rhcc-rights-restricted>no</xmp:rhcc-rights-restricted>
         <xmp:brand-content-subtype>Technology icon</xmp:brand-content-subtype>
         <xmp:rhcc-derivative-id>DER2780f9f7-36c1-46bd-9cb6-0475405ff51a</xmp:rhcc-derivative-id>
         <xmp:rhcc-uploaded-by>pmeilleu@redhat.com</xmp:rhcc-uploaded-by>
         <xmp:brand-logo-color>Standard</xmp:brand-logo-color>
         <xmp:rhcc-notify-portal-subscribers-on-change>yes</xmp:rhcc-notify-portal-subscribers-on-change>
         <xmp:rhcc-product>
            <rdf:Bag>
               <rdf:li>rhcc-product:red-hat-ansible-automation-platform</rdf:li>
            </rdf:Bag>
         </xmp:rhcc-product>
         <xmp:brand-subtype>
            <rdf:Bag>
               <rdf:li>Technology icon</rdf:li>
            </rdf:Bag>
         </xmp:brand-subtype>
         <dc:format>image/svg+xml</dc:format>
         <dc:modified>2024-05-10T00:43:40.831Z</dc:modified>
         <dc:title>
            <rdf:Alt>
               <rdf:li xml:lang="x-default">Ansible Content Collections icon</rdf:li>
            </rdf:Alt>
         </dc:title>
         <dc:description>
            <rdf:Alt>
               <rdf:li xml:lang="x-default">Management</rdf:li>
            </rdf:Alt>
         </dc:description>
         <cq:lastReplicationAction_scene7>Activate</cq:lastReplicationAction_scene7>
         <cq:lastReplicationAction_publish>Activate</cq:lastReplicationAction_publish>
         <cq:lastReplicated_publish>2024-10-02T19:50:10.709Z</cq:lastReplicated_publish>
         <cq:lastReplicatedBy>workflow-process-service</cq:lastReplicatedBy>
         <cq:lastReplicationAction>Activate</cq:lastReplicationAction>
         <cq:lastReplicatedBy_publish>workflow-process-service</cq:lastReplicatedBy_publish>
         <cq:isDelivered>false</cq:isDelivered>
         <cq:lastReplicated>2024-10-02T19:50:10.709Z</cq:lastReplicated>
         <cq:lastReplicatedBy_scene7>workflow-process-service</cq:lastReplicatedBy_scene7>
         <cq:lastReplicated_scene7>2024-10-02T19:50:10.709Z</cq:lastReplicated_scene7>
         <tiff:ImageLength>38</tiff:ImageLength>
         <tiff:ImageWidth>38</tiff:ImageWidth>
         <xmpRights:UsageTerms>
            <rdf:Alt>
               <rdf:li xml:lang="x-default">Use technology icons to represent Red Hat products and components. Do not remove the icon from the bounding shape.</rdf:li>
            </rdf:Alt>
         </xmpRights:UsageTerms>
      </rdf:Description>
   </rdf:RDF>
</x:xmpmeta>
                                                                                                    
                                                                                                    
                                                                                                    
                                                                                                    
                                                                                                    
                                                                                                    
                                                                                                    
                                                                                                    
                                                                                                    
                                                                                                    
                                                                                                    
                                                                                                    
                                                                                                    
                                                                                                    
                                                                                                    
                                                                                                    
                                                      
<?xpacket end="w"?></metadata>
<defs><style>.uuid-700deb97-998e-4286-80f1-b64be9d8a87e{fill:#e00;}.uuid-622b6af0-5456-4c50-a06e-b385eb23e91a{fill:#fff;}.uuid-32d24b75-3a1c-4fbd-976b-56a9b9c25ff2{fill:#e0e0e0;}</style></defs><path class="uuid-622b6af0-5456-4c50-a06e-b385eb23e91a" d="m28,1H10C5.02944,1,1,5.02944,1,10v18c0,4.97057,4.02944,9,9,9h18c4.97056,0,9-4.02943,9-9V10c0-4.97056-4.02944-9-9-9h0Z"/><path class="uuid-32d24b75-3a1c-4fbd-976b-56a9b9c25ff2" d="m28,2.25c4.27332,0,7.75,3.47664,7.75,7.75v18c0,4.27336-3.47668,7.75-7.75,7.75H10c-4.27332,0-7.75-3.47664-7.75-7.75V10c0-4.27336,3.47668-7.75,7.75-7.75h18m0-1.25H10C5.02942,1,1,5.02944,1,10v18c0,4.97057,4.02942,9,9,9h18c4.97058,0,9-4.02943,9-9V10c0-4.97056-4.02942-9-9-9h0Z"/><path class="uuid-700deb97-998e-4286-80f1-b64be9d8a87e" d="m28,27.625H10c-.34473,0-.625-.27979-.625-.625v-8c0-.34521.28027-.625.625-.625h18c.34473,0,.625.27979.625.625v8c0,.34521-.28027.625-.625.625Zm-17.375-1.25h16.75v-6.75H10.625v6.75Z"/><path d="m26,17.625c-.34473,0-.625-.27979-.625-.625v-1.375h-12.75v1.375c0,.34521-.28027.625-.625.625s-.625-.27979-.625-.625v-2c0-.34521.28027-.625.625-.625h14c.34473,0,.625.27979.625.625v2c0,.34521-.28027.625-.625.625Z"/><path d="m24,13.625c-.34473,0-.625-.27979-.625-.625v-1.375h-8.75v1.375c0,.34521-.28027.625-.625.625s-.625-.27979-.625-.625v-2c0-.34521.28027-.625.625-.625h10c.34473,0,.625.27979.625.625v2c0,.34521-.28027.625-.625.625Z"/><path d="m14,24.625c-.16016,0-.32031-.06104-.44238-.18311l-1-1c-.24316-.24414-.24316-.63965,0-.88379.24414-.24414.64062-.24414.88477,0l.55762.55811,1.55762-1.55811c.24414-.24414.64062-.24414.88477,0,.24316.24414.24316.63965,0,.88379l-2,2c-.12207.12207-.28223.18311-.44238.18311Z"/><path d="m25,22.625h-6c-.34473,0-.625-.27979-.625-.625s.28027-.625.625-.625h6c.34473,0,.625.27979.625.625s-.28027.625-.625.625Z"/><path d="m23,24.625h-4c-.34473,0-.625-.27979-.625-.625s.28027-.625.625-.625h4c.34473,0,.625.27979.625.625s-.28027.625-.625.625Z"/></svg>