<?xml version="1.0" encoding="UTF-8"?><svg id="uuid-ae9c5650-1aa0-40ab-83a2-138811124188" xmlns="http://www.w3.org/2000/svg" viewBox="0 0 38 38"><title>Automation controller icon</title>
<desc>Management, Ansible</desc>
<metadata><?xpacket begin="﻿" id="W5M0MpCehiHzreSzNTczkc9d"?>
<x:xmpmeta xmlns:x="adobe:ns:meta/" x:xmptk="Adobe XMP Core 8.0-c001 1.000000, 0000/00/00-00:00:00        ">
   <rdf:RDF xmlns:rdf="http://www.w3.org/1999/02/22-rdf-syntax-ns#">
      <rdf:Description rdf:about=""
            xmlns:xmp="http://ns.adobe.com/xap/1.0/"
            xmlns:dc="http://purl.org/dc/elements/1.1/"
            xmlns:cq="http://www.day.com/jcr/cq/1.0"
            xmlns:tiff="http://ns.adobe.com/tiff/1.0/"
            xmlns:xmpRights="http://ns.adobe.com/xap/1.0/rights/">
         <xmp:rhcc-effective-on>2024-03-01T15:25:54.899Z</xmp:rhcc-effective-on>
         <xmp:rhcc-metadata-complete-moderator>pending</xmp:rhcc-metadata-complete-moderator>
         <xmp:rhcc-translation-id>TRAa65aa12a-2cf1-4088-896b-01ac5605f320</xmp:rhcc-translation-id>
         <xmp:brand-content-type>Icon</xmp:brand-content-type>
         <xmp:CreateDate>2024-03-01T15:25:54.899Z</xmp:CreateDate>
         <xmp:rhcc-aspect-ratio>square</xmp:rhcc-aspect-ratio>
         <xmp:rhcc-effective-on-set-on-upload>true</xmp:rhcc-effective-on-set-on-upload>
         <xmp:rhcc-published-asset-email-sent>true</xmp:rhcc-published-asset-email-sent>
         <xmp:rhcc-metadata-complete-uploader>pending</xmp:rhcc-metadata-complete-uploader>
         <xmp:rhcc-file-last-modified>2024-07-13T00:09:41.569Z</xmp:rhcc-file-last-modified>
         <xmp:rhcc-audience>rhcc-audience:internal</xmp:rhcc-audience>
         <xmp:rhcc-rights-restricted>no</xmp:rhcc-rights-restricted>
         <xmp:brand-content-subtype>Technology icon</xmp:brand-content-subtype>
         <xmp:rhcc-derivative-id>DERa65aa12a-2cf1-4088-896b-01ac5605f320</xmp:rhcc-derivative-id>
         <xmp:rhcc-uploaded-by>pmeilleu@redhat.com</xmp:rhcc-uploaded-by>
         <xmp:brand-logo-color>Standard</xmp:brand-logo-color>
         <xmp:rhcc-notify-portal-subscribers-on-change>yes</xmp:rhcc-notify-portal-subscribers-on-change>
         <xmp:rhcc-product>
            <rdf:Bag>
               <rdf:li>rhcc-product:red-hat-ansible-automation-platform</rdf:li>
            </rdf:Bag>
         </xmp:rhcc-product>
         <xmp:brand-subtype>
            <rdf:Bag>
               <rdf:li>Technology icon</rdf:li>
            </rdf:Bag>
         </xmp:brand-subtype>
         <dc:format>image/svg+xml</dc:format>
         <dc:modified>2024-05-10T12:31:48.376Z</dc:modified>
         <dc:title>
            <rdf:Alt>
               <rdf:li xml:lang="x-default">Automation controller icon</rdf:li>
            </rdf:Alt>
         </dc:title>
         <dc:description>
            <rdf:Alt>
               <rdf:li xml:lang="x-default">Management, Ansible</rdf:li>
            </rdf:Alt>
         </dc:description>
         <cq:lastReplicationAction_scene7>Activate</cq:lastReplicationAction_scene7>
         <cq:lastReplicationAction_publish>Activate</cq:lastReplicationAction_publish>
         <cq:lastReplicated_publish>2024-10-02T19:50:38.994Z</cq:lastReplicated_publish>
         <cq:lastReplicatedBy>workflow-process-service</cq:lastReplicatedBy>
         <cq:lastReplicationAction>Activate</cq:lastReplicationAction>
         <cq:lastReplicatedBy_publish>workflow-process-service</cq:lastReplicatedBy_publish>
         <cq:isDelivered>false</cq:isDelivered>
         <cq:lastReplicated>2024-10-02T19:50:38.994Z</cq:lastReplicated>
         <cq:lastReplicatedBy_scene7>workflow-process-service</cq:lastReplicatedBy_scene7>
         <cq:lastReplicated_scene7>2024-10-02T19:50:38.994Z</cq:lastReplicated_scene7>
         <tiff:ImageLength>38</tiff:ImageLength>
         <tiff:ImageWidth>38</tiff:ImageWidth>
         <xmpRights:UsageTerms>
            <rdf:Alt>
               <rdf:li xml:lang="x-default">Use technology icons to represent Red Hat products and components. Do not remove the icon from the bounding shape.</rdf:li>
            </rdf:Alt>
         </xmpRights:UsageTerms>
      </rdf:Description>
   </rdf:RDF>
</x:xmpmeta>
                                                                                                    
                                                                                                    
                                                                                                    
                                                                                                    
                                                                                                    
                                                                                                    
                                                                                                    
                                                                                                    
                                                                                                    
                                                                                                    
                                                                                                    
                                                                                                    
                                                                                                    
                                                                                                    
                                                                                                    
                                                                                                    
                                                      
<?xpacket end="w"?></metadata>
<defs><style>.uuid-375507de-e2d7-436d-b47d-fbcdeb81236f{fill:#e00;}.uuid-eb72751c-fe5e-454c-8d0f-61a6dc40e2ba{fill:#fff;}.uuid-bd2be7c5-86f6-4d1e-8b12-54fb3f9018a0{fill:#e0e0e0;}</style></defs><path class="uuid-eb72751c-fe5e-454c-8d0f-61a6dc40e2ba" d="m28,1H10C5.02944,1,1,5.02944,1,10v18c0,4.97057,4.02944,9,9,9h18c4.97056,0,9-4.02943,9-9V10c0-4.97056-4.02944-9-9-9h0Z"/><path class="uuid-bd2be7c5-86f6-4d1e-8b12-54fb3f9018a0" d="m28,2.25c4.27332,0,7.75,3.47664,7.75,7.75v18c0,4.27336-3.47668,7.75-7.75,7.75H10c-4.27332,0-7.75-3.47664-7.75-7.75V10c0-4.27336,3.47668-7.75,7.75-7.75h18m0-1.25H10C5.02942,1,1,5.02943,1,10v18c0,4.97057,4.02942,9,9,9h18c4.97058,0,9-4.02943,9-9V10c0-4.97057-4.02942-9-9-9h0Z"/><path class="uuid-375507de-e2d7-436d-b47d-fbcdeb81236f" d="m23,12.375h-.77124c-.08569-.4433-.25732-.85614-.50195-1.2171l.5437-.54364c.24316-.24414.24316-.64062,0-.88477-.24414-.24414-.64062-.24414-.88477,0l-.5437.54364c-.36084-.24457-.77368-.4162-1.21704-.50189v-.77124c0-.34473-.28027-.625-.625-.625s-.625.28027-.625.625v.77124c-.44336.08569-.8562.25732-1.21704.50189l-.5437-.54364c-.24414-.24414-.64062-.24414-.88477,0-.24316.24414-.24316.64062,0,.88477l.5437.54364c-.24463.36096-.41626.7738-.50195,1.2171h-.77124c-.34473,0-.625.28027-.625.625s.28027.625.625.625h.77124c.08569.4433.25732.85614.50195,1.2171l-.5437.54364c-.24316.24414-.24316.64062,0,.88477.12207.12207.28223.18262.44238.18262s.32031-.06055.44238-.18262l.5437-.54364c.36084.24457.77368.4162,1.21704.50189v.77124c0,.34473.28027.625.625.625s.625-.28027.625-.625v-.77124c.44336-.08569.8562-.25732,1.21704-.50189l.5437.54364c.12207.12207.28223.18262.44238.18262s.32031-.06055.44238-.18262c.24316-.24414.24316-.64062,0-.88477l-.5437-.54364c.24463-.36096.41626-.7738.50195-1.2171h.77124c.34473,0,.625-.28027.625-.625s-.28027-.625-.625-.625Zm-4,2.66699c-1.12598,0-2.04199-.91602-2.04199-2.04199s.91602-2.04199,2.04199-2.04199,2.04199.91602,2.04199,2.04199-.91602,2.04199-2.04199,2.04199Z"/><path class="uuid-375507de-e2d7-436d-b47d-fbcdeb81236f" d="m28,28.625h-4c-.34473,0-.625-.28027-.625-.625v-4c0-.34473.28027-.625.625-.625h4c.34473,0,.625.28027.625.625v4c0,.34473-.28027.625-.625.625Zm-3.375-1.25h2.75v-2.75h-2.75v2.75Z"/><path class="uuid-375507de-e2d7-436d-b47d-fbcdeb81236f" d="m21,28.625h-4c-.34473,0-.625-.28027-.625-.625v-4c0-.34473.28027-.625.625-.625h4c.34473,0,.625.28027.625.625v4c0,.34473-.28027.625-.625.625Zm-3.375-1.25h2.75v-2.75h-2.75v2.75Z"/><path class="uuid-375507de-e2d7-436d-b47d-fbcdeb81236f" d="m14,28.625h-4c-.34473,0-.625-.28027-.625-.625v-4c0-.34473.28027-.625.625-.625h4c.34473,0,.625.28027.625.625v4c0,.34473-.28027.625-.625.625Zm-3.375-1.25h2.75v-2.75h-2.75v2.75Z"/><path d="m26,20.375h-6.375v-1.375c0-.34473-.28027-.625-.625-.625s-.625.28027-.625.625v1.375h-6.375c-.34473,0-.625.28027-.625.625s.28027.625.625.625h14c.34473,0,.625-.28027.625-.625s-.28027-.625-.625-.625Z"/></svg>