<?xml version="1.0" encoding="UTF-8"?><svg id="uuid-79b5b148-1e30-4eee-8e71-98105b4ea6ab" xmlns="http://www.w3.org/2000/svg" viewBox="0 0 38 38"><title>Ansible Playbooks icon</title>
<desc>Management</desc>
<metadata><?xpacket begin="﻿" id="W5M0MpCehiHzreSzNTczkc9d"?>
<x:xmpmeta xmlns:x="adobe:ns:meta/" x:xmptk="Adobe XMP Core 8.0-c001 1.000000, 0000/00/00-00:00:00        ">
   <rdf:RDF xmlns:rdf="http://www.w3.org/1999/02/22-rdf-syntax-ns#">
      <rdf:Description rdf:about=""
            xmlns:xmp="http://ns.adobe.com/xap/1.0/"
            xmlns:dc="http://purl.org/dc/elements/1.1/"
            xmlns:cq="http://www.day.com/jcr/cq/1.0"
            xmlns:tiff="http://ns.adobe.com/tiff/1.0/"
            xmlns:xmpRights="http://ns.adobe.com/xap/1.0/rights/">
         <xmp:rhcc-effective-on>2024-03-01T15:25:43.430Z</xmp:rhcc-effective-on>
         <xmp:rhcc-metadata-complete-moderator>pending</xmp:rhcc-metadata-complete-moderator>
         <xmp:rhcc-translation-id>TRA02d864b1-a09e-452d-b74d-804174f961ff</xmp:rhcc-translation-id>
         <xmp:brand-content-type>Icon</xmp:brand-content-type>
         <xmp:CreateDate>2024-03-01T15:25:43.430Z</xmp:CreateDate>
         <xmp:rhcc-aspect-ratio>square</xmp:rhcc-aspect-ratio>
         <xmp:rhcc-effective-on-set-on-upload>true</xmp:rhcc-effective-on-set-on-upload>
         <xmp:rhcc-metadata-complete-uploader>pending</xmp:rhcc-metadata-complete-uploader>
         <xmp:rhcc-file-last-modified>2024-07-12T23:52:24.763Z</xmp:rhcc-file-last-modified>
         <xmp:rhcc-audience>rhcc-audience:internal</xmp:rhcc-audience>
         <xmp:rhcc-rights-restricted>no</xmp:rhcc-rights-restricted>
         <xmp:brand-content-subtype>Technology icon</xmp:brand-content-subtype>
         <xmp:rhcc-derivative-id>DER02d864b1-a09e-452d-b74d-804174f961ff</xmp:rhcc-derivative-id>
         <xmp:rhcc-uploaded-by>pmeilleu@redhat.com</xmp:rhcc-uploaded-by>
         <xmp:brand-logo-color>Standard</xmp:brand-logo-color>
         <xmp:rhcc-notify-portal-subscribers-on-change>yes</xmp:rhcc-notify-portal-subscribers-on-change>
         <xmp:rhcc-product>
            <rdf:Bag>
               <rdf:li>rhcc-product:red-hat-ansible-automation-platform</rdf:li>
            </rdf:Bag>
         </xmp:rhcc-product>
         <xmp:brand-subtype>
            <rdf:Bag>
               <rdf:li>Technology icon</rdf:li>
            </rdf:Bag>
         </xmp:brand-subtype>
         <dc:format>image/svg+xml</dc:format>
         <dc:modified>2024-05-10T12:28:58.751Z</dc:modified>
         <dc:title>
            <rdf:Alt>
               <rdf:li xml:lang="x-default">Ansible Playbooks icon</rdf:li>
            </rdf:Alt>
         </dc:title>
         <dc:description>
            <rdf:Alt>
               <rdf:li xml:lang="x-default">Management</rdf:li>
            </rdf:Alt>
         </dc:description>
         <cq:lastReplicationAction_scene7>Activate</cq:lastReplicationAction_scene7>
         <cq:lastReplicationAction_publish>Activate</cq:lastReplicationAction_publish>
         <cq:lastReplicated_publish>2024-10-02T19:50:17.439Z</cq:lastReplicated_publish>
         <cq:lastReplicatedBy>workflow-process-service</cq:lastReplicatedBy>
         <cq:lastReplicationAction>Activate</cq:lastReplicationAction>
         <cq:lastReplicatedBy_publish>workflow-process-service</cq:lastReplicatedBy_publish>
         <cq:isDelivered>false</cq:isDelivered>
         <cq:lastReplicated>2024-10-02T19:50:17.439Z</cq:lastReplicated>
         <cq:lastReplicatedBy_scene7>workflow-process-service</cq:lastReplicatedBy_scene7>
         <cq:lastReplicated_scene7>2024-10-02T19:50:17.439Z</cq:lastReplicated_scene7>
         <tiff:ImageLength>38</tiff:ImageLength>
         <tiff:ImageWidth>38</tiff:ImageWidth>
         <xmpRights:UsageTerms>
            <rdf:Alt>
               <rdf:li xml:lang="x-default">Use technology icons to represent Red Hat products and components. Do not remove the icon from the bounding shape.</rdf:li>
            </rdf:Alt>
         </xmpRights:UsageTerms>
      </rdf:Description>
   </rdf:RDF>
</x:xmpmeta>
                                                                                                    
                                                                                                    
                                                                                                    
                                                                                                    
                                                                                                    
                                                                                                    
                                                                                                    
                                                                                                    
                                                                                                    
                                                                                                    
                                                                                                    
                                                                                                    
                                                                                                    
                                                                                                    
                                                                                                    
                                                                                                    
                                                                                                    
                                          
<?xpacket end="w"?></metadata>
<defs><style>.uuid-4006e068-e077-41b8-af6c-781bd3fec14d{fill:#e00;}.uuid-42af5725-3a6d-4c6f-a327-df908423ee48{fill:#fff;}.uuid-f59b7fb0-cffe-4cc3-8697-55ff2648c986{fill:#e0e0e0;}</style></defs><path class="uuid-42af5725-3a6d-4c6f-a327-df908423ee48" d="m28,1H10C5.02944,1,1,5.02944,1,10v18c0,4.97057,4.02944,9,9,9h18c4.97056,0,9-4.02943,9-9V10c0-4.97056-4.02944-9-9-9h0Z"/><path class="uuid-f59b7fb0-cffe-4cc3-8697-55ff2648c986" d="m28,2.25c4.27332,0,7.75,3.47664,7.75,7.75v18c0,4.27336-3.47668,7.75-7.75,7.75H10c-4.27332,0-7.75-3.47664-7.75-7.75V10c0-4.27336,3.47668-7.75,7.75-7.75h18m0-1.25H10C5.02942,1,1,5.02944,1,10v18c0,4.97057,4.02942,9,9,9h18c4.97058,0,9-4.02943,9-9V10c0-4.97056-4.02942-9-9-9h0Z"/><path d="m27,29.625H11c-.34473,0-.625-.28027-.625-.625V9c0-.34473.28027-.625.625-.625h16c.34473,0,.625.28027.625.625v5c0,.34473-.28027.625-.625.625s-.625-.28027-.625-.625v-4.375h-14.75v18.75h14.75v-4.375c0-.34473.28027-.625.625-.625s.625.28027.625.625v5c0,.34473-.28027.625-.625.625Z"/><path d="m24,14.625h-10c-.34473,0-.625-.28027-.625-.625s.28027-.625.625-.625h10c.34473,0,.625.28027.625.625s-.28027.625-.625.625Z"/><path d="m24,24.625h-10c-.34473,0-.625-.28027-.625-.625s.28027-.625.625-.625h10c.34473,0,.625.28027.625.625s-.28027.625-.625.625Z"/><path d="m19,19.625h-5c-.34473,0-.625-.28027-.625-.625s.28027-.625.625-.625h5c.34473,0,.625.28027.625.625s-.28027.625-.625.625Z"/><path class="uuid-4006e068-e077-41b8-af6c-781bd3fec14d" d="m25,21.625c-.16016,0-.32031-.06055-.44238-.18262l-2-2c-.24316-.24414-.24316-.64062,0-.88477.24414-.24414.64062-.24414.88477,0l1.55762,1.55859,4.55762-4.55859c.24414-.24414.64062-.24414.88477,0,.24316.24414.24316.64062,0,.88477l-5,5c-.12207.12207-.28223.18262-.44238.18262Z"/></svg>