<?xml version="1.0" encoding="UTF-8"?><svg id="uuid-1f7ee3bb-884a-4ced-b9ee-817a2a72b9b0" xmlns="http://www.w3.org/2000/svg" viewBox="0 0 38 38"><title>Red Hat Enterprise Linux icon</title>
<desc>RHEL, Linux platforms, CentOS</desc>
<metadata><?xpacket begin="﻿" id="W5M0MpCehiHzreSzNTczkc9d"?>
<x:xmpmeta xmlns:x="adobe:ns:meta/" x:xmptk="Adobe XMP Core 8.0-c001 1.000000, 0000/00/00-00:00:00        ">
   <rdf:RDF xmlns:rdf="http://www.w3.org/1999/02/22-rdf-syntax-ns#">
      <rdf:Description rdf:about=""
            xmlns:xmp="http://ns.adobe.com/xap/1.0/"
            xmlns:dc="http://purl.org/dc/elements/1.1/"
            xmlns:cq="http://www.day.com/jcr/cq/1.0"
            xmlns:tiff="http://ns.adobe.com/tiff/1.0/"
            xmlns:xmpRights="http://ns.adobe.com/xap/1.0/rights/">
         <xmp:rhcc-effective-on>2024-03-01T15:26:42.958Z</xmp:rhcc-effective-on>
         <xmp:rhcc-metadata-complete-moderator>pending</xmp:rhcc-metadata-complete-moderator>
         <xmp:rhcc-translation-id>TRA3b65dd25-844d-49bb-93c1-30f5b34684f1</xmp:rhcc-translation-id>
         <xmp:brand-content-type>Icon</xmp:brand-content-type>
         <xmp:CreateDate>2024-03-01T15:26:42.958Z</xmp:CreateDate>
         <xmp:rhcc-aspect-ratio>square</xmp:rhcc-aspect-ratio>
         <xmp:rhcc-effective-on-set-on-upload>true</xmp:rhcc-effective-on-set-on-upload>
         <xmp:rhcc-metadata-complete-uploader>pending</xmp:rhcc-metadata-complete-uploader>
         <xmp:rhcc-file-last-modified>2024-07-12T23:52:23.457Z</xmp:rhcc-file-last-modified>
         <xmp:rhcc-audience>rhcc-audience:internal</xmp:rhcc-audience>
         <xmp:rhcc-rights-restricted>no</xmp:rhcc-rights-restricted>
         <xmp:brand-content-subtype>Technology icon</xmp:brand-content-subtype>
         <xmp:rhcc-derivative-id>DER3b65dd25-844d-49bb-93c1-30f5b34684f1</xmp:rhcc-derivative-id>
         <xmp:rhcc-uploaded-by>pmeilleu@redhat.com</xmp:rhcc-uploaded-by>
         <xmp:brand-logo-color>Standard</xmp:brand-logo-color>
         <xmp:rhcc-notify-portal-subscribers-on-change>yes</xmp:rhcc-notify-portal-subscribers-on-change>
         <xmp:rhcc-product>
            <rdf:Bag>
               <rdf:li>rhcc-product:red-hat-enterprise-linux</rdf:li>
            </rdf:Bag>
         </xmp:rhcc-product>
         <xmp:brand-subtype>
            <rdf:Bag>
               <rdf:li>Technology icon</rdf:li>
            </rdf:Bag>
         </xmp:brand-subtype>
         <dc:format>image/svg+xml</dc:format>
         <dc:modified>2024-05-10T14:11:29.114Z</dc:modified>
         <dc:title>
            <rdf:Alt>
               <rdf:li xml:lang="x-default">Red Hat Enterprise Linux icon</rdf:li>
            </rdf:Alt>
         </dc:title>
         <dc:description>
            <rdf:Alt>
               <rdf:li xml:lang="x-default">RHEL, Linux platforms, CentOS</rdf:li>
            </rdf:Alt>
         </dc:description>
         <cq:lastReplicationAction_scene7>Activate</cq:lastReplicationAction_scene7>
         <cq:lastReplicationAction_publish>Activate</cq:lastReplicationAction_publish>
         <cq:lastReplicated_publish>2024-10-02T19:52:38.118Z</cq:lastReplicated_publish>
         <cq:lastReplicatedBy>workflow-process-service</cq:lastReplicatedBy>
         <cq:lastReplicationAction>Activate</cq:lastReplicationAction>
         <cq:lastReplicatedBy_publish>workflow-process-service</cq:lastReplicatedBy_publish>
         <cq:isDelivered>false</cq:isDelivered>
         <cq:lastReplicated>2024-10-02T19:52:38.118Z</cq:lastReplicated>
         <cq:lastReplicatedBy_scene7>workflow-process-service</cq:lastReplicatedBy_scene7>
         <cq:lastReplicated_scene7>2024-10-02T19:52:38.118Z</cq:lastReplicated_scene7>
         <tiff:ImageLength>38</tiff:ImageLength>
         <tiff:ImageWidth>38</tiff:ImageWidth>
         <xmpRights:UsageTerms>
            <rdf:Alt>
               <rdf:li xml:lang="x-default">Use technology icons to represent Red Hat products and components. Do not remove the icon from the bounding shape.</rdf:li>
            </rdf:Alt>
         </xmpRights:UsageTerms>
      </rdf:Description>
   </rdf:RDF>
</x:xmpmeta>
                                                                                                    
                                                                                                    
                                                                                                    
                                                                                                    
                                                                                                    
                                                                                                    
                                                                                                    
                                                                                                    
                                                                                                    
                                                                                                    
                                                                                                    
                                                                                                    
                                                                                                    
                                                                                                    
                                                                                                    
                                                                                                    
                                                                                                    
                                          
<?xpacket end="w"?></metadata>
<defs><style>.uuid-a33bd6e9-2759-4a0e-82f5-ede9d9465a92{fill:#e00;}.uuid-154eb6a5-e754-45cb-ab05-2aaf0c8e0f86{fill:#fff;}.uuid-e4963e52-eb1d-4035-9309-e3cebe2b0af0{fill:#4d4d4d;}</style></defs><rect x="1" y="1" width="36" height="36" rx="9" ry="9"/><path class="uuid-e4963e52-eb1d-4035-9309-e3cebe2b0af0" d="m28,2.25c4.27338,0,7.75,3.47664,7.75,7.75v18c0,4.27336-3.47662,7.75-7.75,7.75H10c-4.27338,0-7.75-3.47664-7.75-7.75V10c0-4.27336,3.47662-7.75,7.75-7.75h18m0-1.25H10C5.02942,1,1,5.02943,1,10v18c0,4.97057,4.02942,9,9,9h18c4.97058,0,9-4.02943,9-9V10c0-4.97057-4.02942-9-9-9h0Z"/><path class="uuid-a33bd6e9-2759-4a0e-82f5-ede9d9465a92" d="m19,29.625c-.10449,0-.20898-.02637-.30371-.0791l-9.90039-5.5c-.19824-.10938-.32129-.31934-.32129-.5459s.12305-.43652.32129-.5459l3.90039-2.16699c.30371-.16895.68164-.05859.84961.24219.16797.30176.05957.68262-.24219.84961l-2.91699,1.62109,8.61328,4.78516,8.61328-4.78516-2.91699-1.62109c-.30176-.16699-.41016-.54785-.24219-.84961.16797-.30078.5459-.41113.84961-.24219l3.90039,2.16699c.19824.10938.32129.31934.32129.5459s-.12305.43652-.32129.5459l-9.90039,5.5c-.09473.05273-.19922.0791-.30371.0791Z"/><path class="uuid-a33bd6e9-2759-4a0e-82f5-ede9d9465a92" d="m19,20.625c-.10449,0-.20898-.02637-.30371-.0791l-9.90039-5.5c-.19824-.10938-.32129-.31934-.32129-.5459s.12305-.43652.32129-.5459l9.90039-5.5c.30371-.16895.68262-.05859.84961.24219.16797.30176.05957.68262-.24219.84961l-8.91699,4.9541,8.61328,4.78516,9.59668-5.33105c.30469-.16895.68262-.05859.84961.24219.16797.30176.05957.68262-.24219.84961l-9.90039,5.5c-.09473.05273-.19922.0791-.30371.0791Z"/><path class="uuid-a33bd6e9-2759-4a0e-82f5-ede9d9465a92" d="m14.25098,17.93066c-.21973,0-.43262-.11621-.54688-.32129-.16797-.30176-.05957-.68262.24219-.84961l6.75-3.75c.30371-.16895.68164-.05859.84961.24219.16797.30176.05957.68262-.24219.84961l-6.75,3.75c-.09668.05371-.2002.0791-.30273.0791Z"/><path class="uuid-154eb6a5-e754-45cb-ab05-2aaf0c8e0f86" d="m19,25.18066c-.10449,0-.20898-.02637-.30371-.0791l-10-5.55566c-.30176-.16699-.41016-.54785-.24219-.84961.16602-.30078.54688-.41016.84961-.24219l9.69629,5.38672,9.69629-5.38672c.30273-.16797.68164-.05859.84961.24219.16797.30176.05957.68262-.24219.84961l-10,5.55566c-.09473.05273-.19922.0791-.30371.0791Z"/></svg>